<svg xmlns="http://www.w3.org/2000/svg" viewBox="0 0 60 80">
  <!-- 椭圆形秋叶（顶端略尖、底端圆），白填充让 mask-mode:luminance 取为显示区域 -->
  <path d="M30 4 C 46 14, 55 32, 52 54 C 48 70, 38 76, 30 76 C 22 76, 12 70, 8 54 C 5 32, 14 14, 30 4 Z" fill="white"/>
  <!-- 主脉（叶柄→叶尖） -->
  <line x1="30" y1="76" x2="30" y2="6" stroke="black" stroke-width="1.4" fill="none" stroke-linecap="round"/>
  <!-- 4 对侧脉（自叶柄向叶缘扩散） -->
  <path d="M30 22 Q40 26 49 34" stroke="black" stroke-width="0.7" fill="none" opacity="0.75" stroke-linecap="round"/>
  <path d="M30 22 Q20 26 11 34" stroke="black" stroke-width="0.7" fill="none" opacity="0.75" stroke-linecap="round"/>
  <path d="M30 36 Q41 40 51 48" stroke="black" stroke-width="0.7" fill="none" opacity="0.75" stroke-linecap="round"/>
  <path d="M30 36 Q19 40 9 48" stroke="black" stroke-width="0.7" fill="none" opacity="0.75" stroke-linecap="round"/>
  <path d="M30 50 Q40 55 48 64" stroke="black" stroke-width="0.7" fill="none" opacity="0.75" stroke-linecap="round"/>
  <path d="M30 50 Q20 55 12 64" stroke="black" stroke-width="0.7" fill="none" opacity="0.75" stroke-linecap="round"/>
</svg>
