<svg xmlns="http://www.w3.org/2000/svg" viewBox="0 0 130 80">
  <defs>
    <linearGradient id="g" x1="0" y1="0" x2="1" y2="1">
      <stop offset="0" stop-color="#fdf0c4"/>
      <stop offset=".45" stop-color="#e0b54e"/>
      <stop offset="1" stop-color="#9c7320"/>
    </linearGradient>
  </defs>
  <!-- 贝壳主体 -->
  <path d="M65 20 C 42 20, 18 44, 18 66 C 18 72, 112 72, 112 66 C 112 44, 88 20, 65 20 Z" fill="url(#g)" stroke="#6f4e16" stroke-width="1.2"/>
  <!-- 贝壳放射纹 -->
  <g stroke="#6f4e16" stroke-width="1.3" opacity=".5" fill="none" stroke-linecap="round">
    <path d="M65 26 L 65 70"/>
    <path d="M65 26 L 49 70"/>
    <path d="M65 26 L 33 67"/>
    <path d="M65 26 L 81 70"/>
    <path d="M65 26 L 97 67"/>
  </g>
  <!-- 顶部卷草 -->
  <path d="M30 28 C 20 22, 14 30, 20 36 C 24 32, 30 34, 30 40 Z" fill="url(#g)" stroke="#6f4e16" stroke-width=".9"/>
  <path d="M100 28 C 110 22, 116 30, 110 36 C 106 32, 100 34, 100 40 Z" fill="url(#g)" stroke="#6f4e16" stroke-width=".9"/>
  <!-- 铰链 -->
  <circle cx="65" cy="66" r="6" fill="url(#g)" stroke="#6f4e16" stroke-width="1"/>
  <!-- 高光 -->
  <path d="M40 30 C 52 26, 78 26, 90 30" fill="none" stroke="#fff6dc" stroke-width="1.4" opacity=".6" stroke-linecap="round"/>
</svg>
